# xmcd CD database file
#
# Track frame offsets:
#	183
#	3028
#	23170
#	38170
#	58308
#	76495
#	90295
#	98045
#	109533
#	119208
#	135758
#	145283
#	174558
#	186183
#	200508
#	235008
#	243933
#	259458
#	284783
#	304008
#	331158
#
# Disc length: 4465 seconds
#
# Revision: 3
# Processed by: cddbd v1.5.2PL0 Copyright (c) Steve Scherf et al.
# Submitted via: CDex 1.51
#
DISCID=1f116f15
DTITLE=Memphis Slim - Parisian Blues - featuring Roosevelt Sykes, Buddy Guy, Junior Wells
DYEAR=1988
DGENRE=Blues
TTITLE0=Introducing "The Grinder Man" And The Honey Dripper (with Roosevelt Sykes)
TTITLE1=Mr Sykes Blues (with Roosevelt Sykes)
TTITLE2=Eagle Rock (with Roosevelt Sykes)
TTITLE3=Miss Ida Bee (with Roosevelt Sykes)
TTITLE4=Going Down Slow (with Roosevelt Sykes)
TTITLE5=4 4 Blues (with Roosevelt Sykes)
TTITLE6=Soft And Mellow (with Roosevelt Sykes)
TTITLE7=The Churning Man (with Roosevelt Sykes)
TTITLE8=47th Street Boogie (with Roosevelt Sykes)
TTITLE9=MNO Blues (with Roosevelt Sykes)
TTITLE10=Roosevelt Daddy's Blues (with Roosevelt Sykes)
TTITLE11=When Buddy Comes To Town (with Buddy Guy and Junior Wells)
TTITLE12=How Long Blues (with Buddy Guy and Junior Wells)
TTITLE13=Good Time Charlie (with Buddy Guy and Junior Wells)
TTITLE14=You Called Me At Last (with Buddy Guy and Junior Wells)
TTITLE15=Ain't Nothing But A Texas Boogie On A Harpsichord (with Buddy Guy and Junior Wells)
TTITLE16=You're The One (with Buddy Guy and Junior Wells)
TTITLE17=No (with Buddy Guy and Junior Wells)
TTITLE18=Help Me Some (with Buddy Guy and Junior Wells)
TTITLE19=Rolling And Tumbling (with Buddy Guy and Junior Wells)
TTITLE20=Ain't Nothing But A New Orleans Boogie On The Same Harpsichord (with Buddy Guy and Junior Wells)
EXTD=YEAR: 1988
EXTT0=
EXTT1=
EXTT2=
EXTT3=
EXTT4=
EXTT5=
EXTT6=
EXTT7=
EXTT8=
EXTT9=
EXTT10=
EXTT11=
EXTT12=
EXTT13=
EXTT14=
EXTT15=
EXTT16=
EXTT17=
EXTT18=
EXTT19=
EXTT20=
PLAYORDER=
